<svg width="679" height="701" viewBox="0 0 679 701" fill="none" xmlns="http://www.w3.org/2000/svg">
<path opacity="0.03" d="M258.618 441.811L589.03 384V450.204L258.618 509L258.618 441.811Z" fill="#0097FE"/>
<g filter="url(#filter0_d_1_1448)">
<rect x="108" y="160" width="339" height="412" rx="10" fill="white"/>
</g>
<path d="M206.775 206.513C205.307 206.513 204.024 206.179 202.926 205.512C201.829 204.845 200.976 203.918 200.368 202.731C199.76 201.53 199.456 200.136 199.456 198.549C199.456 196.947 199.767 195.538 200.39 194.322C201.028 193.091 201.925 192.135 203.082 191.452C204.254 190.755 205.64 190.407 207.242 190.407C209.066 190.407 210.579 190.844 211.78 191.719C212.981 192.594 213.76 193.803 214.116 195.346H210.935C210.698 194.619 210.267 194.055 209.645 193.655C209.022 193.24 208.221 193.032 207.242 193.032C205.685 193.032 204.483 193.529 203.638 194.522C202.793 195.501 202.37 196.851 202.37 198.571C202.37 200.292 202.785 201.626 203.616 202.575C204.461 203.51 205.603 203.977 207.042 203.977C208.451 203.977 209.511 203.599 210.223 202.842C210.95 202.071 211.387 201.063 211.535 199.817H207.598V197.681H214.405V206.246H211.78L211.558 204.199C211.053 204.941 210.423 205.512 209.667 205.912C208.91 206.313 207.946 206.513 206.775 206.513ZM216.662 206.246V190.229H219.509V206.246H216.662ZM227.268 206.513C226.201 206.513 225.237 206.268 224.376 205.779C223.531 205.29 222.856 204.615 222.352 203.755C221.863 202.88 221.618 201.871 221.618 200.729C221.618 199.587 221.87 198.586 222.374 197.726C222.879 196.851 223.553 196.169 224.399 195.679C225.259 195.19 226.223 194.945 227.291 194.945C228.344 194.945 229.293 195.19 230.138 195.679C230.998 196.169 231.673 196.851 232.163 197.726C232.667 198.586 232.919 199.587 232.919 200.729C232.919 201.871 232.667 202.88 232.163 203.755C231.673 204.615 230.998 205.29 230.138 205.779C229.278 206.268 228.321 206.513 227.268 206.513ZM227.268 204.044C228.01 204.044 228.655 203.769 229.204 203.221C229.753 202.657 230.027 201.827 230.027 200.729C230.027 199.632 229.753 198.808 229.204 198.26C228.655 197.696 228.017 197.414 227.291 197.414C226.534 197.414 225.882 197.696 225.333 198.26C224.799 198.808 224.532 199.632 224.532 200.729C224.532 201.827 224.799 202.657 225.333 203.221C225.882 203.769 226.527 204.044 227.268 204.044ZM241.56 206.513C240.73 206.513 240.003 206.357 239.38 206.046C238.757 205.734 238.253 205.297 237.868 204.733L237.556 206.246H235.02V190.229H237.868V196.792C238.223 196.302 238.691 195.872 239.269 195.501C239.862 195.13 240.626 194.945 241.56 194.945C242.599 194.945 243.525 195.197 244.341 195.701C245.157 196.206 245.802 196.895 246.277 197.77C246.751 198.645 246.988 199.639 246.988 200.751C246.988 201.864 246.751 202.857 246.277 203.732C245.802 204.592 245.157 205.275 244.341 205.779C243.525 206.268 242.599 206.513 241.56 206.513ZM240.96 204.021C241.864 204.021 242.613 203.717 243.207 203.109C243.8 202.501 244.096 201.715 244.096 200.751C244.096 199.787 243.8 198.994 243.207 198.371C242.613 197.748 241.864 197.437 240.96 197.437C240.04 197.437 239.284 197.748 238.691 198.371C238.112 198.979 237.823 199.765 237.823 200.729C237.823 201.693 238.112 202.487 238.691 203.109C239.284 203.717 240.04 204.021 240.96 204.021ZM252.891 206.513C251.942 206.513 251.164 206.365 250.555 206.068C249.947 205.757 249.495 205.349 249.198 204.845C248.902 204.34 248.754 203.784 248.754 203.176C248.754 202.153 249.154 201.322 249.955 200.685C250.756 200.047 251.957 199.728 253.559 199.728H256.362V199.461C256.362 198.705 256.147 198.149 255.717 197.793C255.286 197.437 254.753 197.259 254.115 197.259C253.536 197.259 253.032 197.4 252.602 197.681C252.172 197.948 251.905 198.349 251.801 198.883H249.02C249.095 198.082 249.362 197.385 249.821 196.792C250.296 196.198 250.904 195.746 251.646 195.434C252.387 195.108 253.218 194.945 254.137 194.945C255.709 194.945 256.947 195.338 257.852 196.124C258.757 196.91 259.209 198.022 259.209 199.461V206.246H256.784L256.517 204.466C256.191 205.06 255.731 205.549 255.138 205.935C254.56 206.32 253.811 206.513 252.891 206.513ZM253.536 204.288C254.352 204.288 254.982 204.021 255.427 203.488C255.887 202.954 256.176 202.294 256.295 201.508H253.87C253.114 201.508 252.572 201.649 252.246 201.93C251.92 202.197 251.757 202.531 251.757 202.931C251.757 203.362 251.92 203.695 252.246 203.933C252.572 204.17 253.003 204.288 253.536 204.288ZM261.482 206.246V190.229H264.329V206.246H261.482ZM277.033 206.513C275.891 206.513 274.883 206.32 274.008 205.935C273.133 205.534 272.443 204.971 271.939 204.244C271.435 203.502 271.175 202.605 271.16 201.552H274.163C274.193 202.279 274.453 202.894 274.942 203.399C275.446 203.888 276.136 204.133 277.011 204.133C277.767 204.133 278.368 203.955 278.813 203.599C279.258 203.228 279.48 202.739 279.48 202.131C279.48 201.493 279.28 200.996 278.88 200.64C278.494 200.284 277.975 199.995 277.322 199.772C276.67 199.55 275.973 199.313 275.231 199.061C274.03 198.645 273.11 198.111 272.473 197.459C271.85 196.806 271.538 195.939 271.538 194.856C271.524 193.937 271.739 193.151 272.183 192.498C272.643 191.831 273.266 191.319 274.052 190.963C274.838 190.592 275.743 190.407 276.766 190.407C277.804 190.407 278.716 190.592 279.502 190.963C280.303 191.334 280.926 191.853 281.371 192.52C281.831 193.188 282.076 193.981 282.105 194.901H279.058C279.043 194.352 278.828 193.87 278.412 193.455C278.012 193.025 277.448 192.809 276.722 192.809C276.099 192.795 275.572 192.95 275.142 193.277C274.727 193.588 274.519 194.048 274.519 194.656C274.519 195.175 274.682 195.59 275.009 195.902C275.335 196.198 275.78 196.45 276.344 196.658C276.907 196.866 277.552 197.088 278.279 197.325C279.05 197.592 279.755 197.904 280.392 198.26C281.03 198.616 281.542 199.09 281.927 199.683C282.313 200.262 282.506 201.011 282.506 201.93C282.506 202.746 282.298 203.502 281.883 204.199C281.468 204.896 280.852 205.46 280.036 205.89C279.221 206.305 278.22 206.513 277.033 206.513ZM289.395 206.246C288.238 206.246 287.311 205.964 286.614 205.401C285.917 204.837 285.569 203.836 285.569 202.398V197.592H283.678V195.212H285.569L285.902 192.253H288.416V195.212H291.397V197.592H288.416V202.42C288.416 202.954 288.527 203.324 288.75 203.532C288.987 203.725 289.387 203.821 289.951 203.821H291.33V206.246H289.395ZM297.201 206.513C296.252 206.513 295.473 206.365 294.865 206.068C294.257 205.757 293.805 205.349 293.508 204.845C293.211 204.34 293.063 203.784 293.063 203.176C293.063 202.153 293.464 201.322 294.264 200.685C295.065 200.047 296.267 199.728 297.868 199.728H300.671V199.461C300.671 198.705 300.456 198.149 300.026 197.793C299.596 197.437 299.062 197.259 298.424 197.259C297.846 197.259 297.342 197.4 296.912 197.681C296.482 197.948 296.215 198.349 296.111 198.883H293.33C293.404 198.082 293.671 197.385 294.131 196.792C294.606 196.198 295.214 195.746 295.955 195.434C296.697 195.108 297.527 194.945 298.447 194.945C300.019 194.945 301.257 195.338 302.162 196.124C303.067 196.91 303.519 198.022 303.519 199.461V206.246H301.094L300.827 204.466C300.501 205.06 300.041 205.549 299.448 205.935C298.869 206.32 298.12 206.513 297.201 206.513ZM297.846 204.288C298.662 204.288 299.292 204.021 299.737 203.488C300.197 202.954 300.486 202.294 300.605 201.508H298.18C297.423 201.508 296.882 201.649 296.556 201.93C296.23 202.197 296.066 202.531 296.066 202.931C296.066 203.362 296.23 203.695 296.556 203.933C296.882 204.17 297.312 204.288 297.846 204.288ZM310.556 206.246C309.399 206.246 308.472 205.964 307.775 205.401C307.078 204.837 306.729 203.836 306.729 202.398V197.592H304.838V195.212H306.729L307.063 192.253H309.577V195.212H312.558V197.592H309.577V202.42C309.577 202.954 309.688 203.324 309.91 203.532C310.148 203.725 310.548 203.821 311.112 203.821H312.491V206.246H310.556ZM316.093 193.499C315.574 193.499 315.143 193.343 314.802 193.032C314.476 192.72 314.313 192.327 314.313 191.853C314.313 191.378 314.476 190.993 314.802 190.696C315.143 190.385 315.574 190.229 316.093 190.229C316.612 190.229 317.034 190.385 317.361 190.696C317.702 190.993 317.872 191.378 317.872 191.853C317.872 192.327 317.702 192.72 317.361 193.032C317.034 193.343 316.612 193.499 316.093 193.499ZM314.669 206.246V195.212H317.516V206.246H314.669ZM324.604 206.513C323.625 206.513 322.765 206.357 322.023 206.046C321.282 205.72 320.689 205.275 320.244 204.711C319.799 204.148 319.532 203.495 319.443 202.753H322.313C322.402 203.184 322.639 203.554 323.024 203.866C323.425 204.162 323.937 204.311 324.559 204.311C325.182 204.311 325.635 204.185 325.916 203.933C326.213 203.68 326.361 203.391 326.361 203.065C326.361 202.59 326.154 202.271 325.739 202.108C325.323 201.93 324.745 201.76 324.003 201.597C323.529 201.493 323.047 201.367 322.557 201.218C322.068 201.07 321.616 200.885 321.2 200.662C320.8 200.425 320.474 200.128 320.221 199.772C319.969 199.402 319.843 198.949 319.843 198.415C319.843 197.437 320.229 196.614 321 195.946C321.786 195.279 322.884 194.945 324.293 194.945C325.598 194.945 326.636 195.249 327.407 195.857C328.193 196.465 328.66 197.303 328.808 198.371H326.117C325.954 197.555 325.338 197.147 324.27 197.147C323.736 197.147 323.321 197.251 323.024 197.459C322.743 197.667 322.602 197.926 322.602 198.238C322.602 198.564 322.817 198.823 323.247 199.016C323.677 199.209 324.248 199.387 324.96 199.55C325.731 199.728 326.436 199.928 327.073 200.151C327.726 200.358 328.245 200.677 328.631 201.107C329.016 201.523 329.209 202.123 329.209 202.909C329.224 203.591 329.046 204.207 328.675 204.756C328.304 205.304 327.77 205.734 327.073 206.046C326.376 206.357 325.553 206.513 324.604 206.513ZM335.855 206.246C334.698 206.246 333.772 205.964 333.075 205.401C332.377 204.837 332.029 203.836 332.029 202.398V197.592H330.138V195.212H332.029L332.363 192.253H334.876V195.212H337.857V197.592H334.876V202.42C334.876 202.954 334.988 203.324 335.21 203.532C335.447 203.725 335.848 203.821 336.411 203.821H337.791V206.246H335.855ZM341.392 193.499C340.873 193.499 340.443 193.343 340.102 193.032C339.776 192.72 339.613 192.327 339.613 191.853C339.613 191.378 339.776 190.993 340.102 190.696C340.443 190.385 340.873 190.229 341.392 190.229C341.911 190.229 342.334 190.385 342.66 190.696C343.001 190.993 343.172 191.378 343.172 191.853C343.172 192.327 343.001 192.72 342.66 193.032C342.334 193.343 341.911 193.499 341.392 193.499ZM339.969 206.246V195.212H342.816V206.246H339.969ZM350.749 206.513C349.622 206.513 348.628 206.268 347.768 205.779C346.908 205.29 346.226 204.607 345.721 203.732C345.232 202.857 344.987 201.856 344.987 200.729C344.987 199.602 345.232 198.601 345.721 197.726C346.226 196.851 346.908 196.169 347.768 195.679C348.628 195.19 349.622 194.945 350.749 194.945C352.158 194.945 353.344 195.316 354.308 196.057C355.272 196.784 355.888 197.793 356.155 199.083H353.152C353.003 198.549 352.707 198.134 352.262 197.837C351.832 197.526 351.32 197.37 350.727 197.37C349.941 197.37 349.273 197.667 348.725 198.26C348.176 198.853 347.902 199.676 347.902 200.729C347.902 201.782 348.176 202.605 348.725 203.198C349.273 203.792 349.941 204.088 350.727 204.088C351.32 204.088 351.832 203.94 352.262 203.643C352.707 203.347 353.003 202.924 353.152 202.375H356.155C355.888 203.621 355.272 204.622 354.308 205.378C353.344 206.135 352.158 206.513 350.749 206.513Z" fill="#03133D"/>
<path d="M277.845 464.696C262.931 464.696 248.162 461.758 234.383 456.051C220.604 450.343 208.084 441.978 197.538 431.432C186.992 420.886 178.627 408.366 172.919 394.587C167.212 380.808 164.275 366.039 164.275 351.125C164.275 336.211 167.212 321.443 172.919 307.664C178.627 293.885 186.992 281.365 197.538 270.819C208.085 260.273 220.604 251.908 234.383 246.2C248.162 240.493 262.931 237.555 277.845 237.555C292.759 237.555 307.527 240.493 321.306 246.2C335.085 251.908 347.605 260.273 358.151 270.819C368.697 281.365 377.065 293.885 382.769 307.664C388.478 321.443 391.416 336.211 391.416 351.125C391.416 366.039 388.478 380.808 382.769 394.587C377.06 408.366 368.697 420.886 358.151 431.432C347.605 441.978 335.085 450.343 321.306 456.051C307.527 461.758 292.759 464.696 277.845 464.696Z" stroke="#F0F3FF" stroke-width="7.41536" stroke-linecap="round"/>
<path d="M277.845 464.696C261.022 464.696 244.408 460.958 229.206 453.753C214.003 446.548 200.591 436.055 189.939 423.034C179.287 410.012 171.662 394.787 167.613 378.458C163.564 362.129 163.194 345.104 166.528 328.615C169.862 312.125 176.819 296.583 186.894 283.11C196.969 269.637 209.912 258.571 224.787 250.711C239.661 242.851 256.096 238.395 272.903 237.663C289.711 236.931 306.471 239.942 321.973 246.479" stroke="#0097FE" stroke-width="7.41536" stroke-linecap="round"/>
<path d="M277.513 438.026C266.02 438.026 254.641 435.762 244.023 431.364C233.406 426.966 223.758 420.52 215.632 412.394C207.506 404.267 201.059 394.62 196.662 384.002C192.264 373.385 190 362.005 190 350.513C190 339.021 192.264 327.64 196.662 317.023C201.059 306.405 207.506 296.758 215.632 288.632C223.758 280.506 233.406 274.059 244.023 269.661C254.641 265.264 266.02 263 277.513 263C289.005 263 300.385 265.264 311.003 269.661C321.62 274.059 331.267 280.506 339.393 288.632C347.52 296.758 353.966 306.405 358.363 317.023C362.761 327.641 365.025 339.02 365.025 350.513C365.025 362.005 362.761 373.385 358.363 384.002C353.966 394.62 347.52 404.267 339.393 412.394C331.267 420.52 321.62 426.966 311.002 431.364C300.385 435.762 289.005 438.026 277.513 438.026Z" stroke="#F0F3FF" stroke-width="7.41536" stroke-linecap="round"/>
<path d="M277.513 438.026C262.738 438.026 248.204 434.285 235.265 427.152C222.326 420.02 211.404 409.727 203.516 397.234C195.628 384.741 191.031 370.455 190.154 355.707C189.277 340.958 192.149 326.228 198.501 312.888C204.853 299.548 214.479 288.035 226.482 279.419C238.485 270.804 252.473 265.367 267.144 263.617C281.814 261.866 296.689 263.858 310.382 269.407C324.075 274.956 336.14 283.882 345.453 295.352" stroke="#AC5FE6" stroke-width="7.41536" stroke-linecap="round"/>
<path d="M278.29 415.581C269.848 415.581 261.488 413.918 253.687 410.687C245.887 407.456 238.8 402.72 232.83 396.75C226.86 390.78 222.125 383.693 218.894 375.893C215.663 368.093 214 359.733 214 351.29C214 342.848 215.663 334.487 218.894 326.688C222.125 318.887 226.86 311.8 232.83 305.83C238.8 299.86 245.887 295.125 253.687 291.894C261.488 288.663 269.848 287 278.29 287C286.733 287 295.093 288.663 302.893 291.894C310.693 295.125 317.781 299.86 323.751 305.83C329.72 311.8 334.456 318.887 337.687 326.688C340.918 334.487 342.581 342.848 342.581 351.29C342.581 359.733 340.918 368.093 337.687 375.893C334.456 383.693 329.72 390.78 323.751 396.75C317.781 402.72 310.693 407.456 302.893 410.687C295.093 413.918 286.733 415.581 278.29 415.581Z" stroke="#EDF1FC" stroke-width="7.41536" stroke-linecap="round"/>
<path d="M278.29 415.581C264.086 415.581 250.281 410.877 239.033 402.203C227.784 393.53 219.724 381.375 216.113 367.638C212.501 353.9 213.541 339.353 219.069 326.269C224.597 313.184 234.303 302.299 246.671 295.313C259.038 288.327 273.372 285.634 287.432 287.653C301.492 289.673 314.487 296.292 324.388 306.477C334.289 316.662 340.538 329.839 342.16 343.951C343.782 358.062 340.685 372.314 333.352 384.479" stroke="#FFAE00" stroke-width="7.41536" stroke-linecap="round"/>
<path d="M277.814 345.053C286.113 345.053 292.841 338.326 292.841 330.027C292.841 321.728 286.113 315 277.814 315C269.515 315 262.787 321.728 262.787 330.027C262.787 338.326 269.515 345.053 277.814 345.053Z" fill="#EBF7FF"/>
<path fill-rule="evenodd" clip-rule="evenodd" d="M284.28 326.092C284.278 326.039 284.263 325.989 284.249 325.937C284.237 325.894 284.232 325.851 284.214 325.811C284.197 325.773 284.168 325.742 284.143 325.706C284.111 325.661 284.083 325.616 284.043 325.579C284.037 325.572 284.034 325.563 284.026 325.557C283.999 325.534 283.967 325.526 283.938 325.507C283.893 325.478 283.85 325.449 283.799 325.43C283.75 325.412 283.701 325.407 283.65 325.4C283.614 325.395 283.582 325.378 283.544 325.378H279.838C279.428 325.378 279.096 325.711 279.096 326.12C279.096 326.529 279.428 326.861 279.838 326.861H281.933L278.941 330.351L275.771 328.45C275.457 328.26 275.054 328.33 274.82 328.611L271.113 333.058C270.852 333.373 270.894 333.84 271.208 334.102C271.348 334.218 271.515 334.274 271.683 334.274C271.895 334.274 272.106 334.184 272.253 334.007L275.553 330.047L278.715 331.945C279.025 332.131 279.424 332.066 279.659 331.791L282.803 328.123V329.826C282.803 330.235 283.134 330.568 283.544 330.568C283.954 330.568 284.286 330.235 284.286 329.826V326.12C284.286 326.11 284.28 326.102 284.28 326.092Z" fill="#231F20"/>
<mask id="mask0_1_1448" style="mask-type:luminance" maskUnits="userSpaceOnUse" x="270" y="325" width="15" height="10">
<path fill-rule="evenodd" clip-rule="evenodd" d="M284.28 326.092C284.278 326.039 284.263 325.989 284.249 325.937C284.237 325.894 284.232 325.851 284.214 325.811C284.197 325.773 284.168 325.742 284.143 325.706C284.111 325.661 284.083 325.616 284.043 325.579C284.037 325.572 284.034 325.563 284.026 325.557C283.999 325.534 283.967 325.526 283.938 325.507C283.893 325.478 283.85 325.449 283.799 325.43C283.75 325.412 283.701 325.407 283.65 325.4C283.614 325.395 283.582 325.378 283.544 325.378H279.838C279.428 325.378 279.096 325.711 279.096 326.12C279.096 326.529 279.428 326.861 279.838 326.861H281.933L278.941 330.351L275.771 328.45C275.457 328.26 275.054 328.33 274.82 328.611L271.113 333.058C270.852 333.373 270.894 333.84 271.208 334.102C271.348 334.218 271.515 334.274 271.683 334.274C271.895 334.274 272.106 334.184 272.253 334.007L275.553 330.047L278.715 331.945C279.025 332.131 279.424 332.066 279.659 331.791L282.803 328.123V329.826C282.803 330.235 283.134 330.568 283.544 330.568C283.954 330.568 284.286 330.235 284.286 329.826V326.12C284.286 326.11 284.28 326.102 284.28 326.092Z" fill="white"/>
</mask>
<g mask="url(#mask0_1_1448)">
<rect x="268.718" y="320.931" width="17.7913" height="17.7913" fill="#0097FE"/>
</g>
<path d="M251.582 359.452V353.839H249.723V353.225H254.189V353.839H252.33V359.452H251.582ZM254.375 359.452V355.039H255.051L255.113 355.885C255.25 355.594 255.457 355.363 255.736 355.191C256.015 355.019 256.359 354.933 256.768 354.933V355.715H256.563C256.302 355.715 256.062 355.763 255.843 355.858C255.623 355.947 255.448 356.101 255.318 356.32C255.187 356.54 255.122 356.842 255.122 357.228V359.452H254.375ZM258.896 359.558C258.529 359.558 258.223 359.496 257.98 359.372C257.737 359.247 257.556 359.081 257.437 358.873C257.319 358.666 257.26 358.441 257.26 358.197C257.26 357.747 257.432 357.4 257.776 357.157C258.119 356.913 258.588 356.792 259.181 356.792H260.373V356.738C260.373 356.353 260.272 356.062 260.071 355.867C259.869 355.665 259.599 355.564 259.261 355.564C258.971 355.564 258.718 355.638 258.505 355.787C258.297 355.929 258.167 356.14 258.114 356.418H257.349C257.378 356.098 257.485 355.828 257.669 355.609C257.859 355.389 258.093 355.223 258.372 355.111C258.65 354.992 258.947 354.933 259.261 354.933C259.878 354.933 260.34 355.099 260.649 355.431C260.963 355.757 261.12 356.193 261.12 356.738V359.452H260.453L260.409 358.66C260.284 358.909 260.1 359.123 259.857 359.3C259.62 359.472 259.3 359.558 258.896 359.558ZM259.012 358.927C259.297 358.927 259.54 358.853 259.741 358.704C259.949 358.556 260.106 358.363 260.213 358.126C260.32 357.889 260.373 357.64 260.373 357.379V357.37H259.243C258.804 357.37 258.493 357.447 258.309 357.601C258.131 357.75 258.042 357.936 258.042 358.162C258.042 358.393 258.125 358.58 258.291 358.722C258.463 358.859 258.704 358.927 259.012 358.927ZM262.304 359.452V355.671H261.636V355.039H262.304V354.274C262.304 353.847 262.41 353.536 262.624 353.34C262.837 353.145 263.149 353.047 263.558 353.047H264.003V353.687H263.673C263.448 353.687 263.288 353.735 263.193 353.83C263.098 353.919 263.051 354.073 263.051 354.292V355.039H264.136V355.671H263.051V359.452H262.304ZM265.088 359.452V355.671H264.421V355.039H265.088V354.274C265.088 353.847 265.195 353.536 265.408 353.34C265.622 353.145 265.933 353.047 266.342 353.047H266.787V353.687H266.458C266.233 353.687 266.072 353.735 265.978 353.83C265.883 353.919 265.835 354.073 265.835 354.292V355.039H268.575V359.452H267.828V355.671H265.835V359.452H265.088ZM268.21 354.194C268.068 354.194 267.946 354.147 267.846 354.052C267.745 353.951 267.694 353.827 267.694 353.678C267.694 353.536 267.745 353.417 267.846 353.323C267.946 353.228 268.068 353.18 268.21 353.18C268.359 353.18 268.48 353.228 268.575 353.323C268.676 353.417 268.726 353.536 268.726 353.678C268.726 353.827 268.676 353.951 268.575 354.052C268.48 354.147 268.359 354.194 268.21 354.194ZM271.745 359.558C271.324 359.558 270.945 359.464 270.607 359.274C270.275 359.078 270.011 358.808 269.815 358.464C269.625 358.114 269.53 357.708 269.53 357.246C269.53 356.783 269.625 356.38 269.815 356.036C270.011 355.686 270.275 355.416 270.607 355.226C270.945 355.031 271.324 354.933 271.745 354.933C272.267 354.933 272.706 355.069 273.062 355.342C273.424 355.615 273.652 355.979 273.747 356.436H272.982C272.923 356.163 272.777 355.953 272.546 355.804C272.315 355.65 272.045 355.573 271.736 355.573C271.487 355.573 271.253 355.635 271.034 355.76C270.814 355.885 270.636 356.071 270.5 356.32C270.364 356.569 270.295 356.878 270.295 357.246C270.295 357.613 270.364 357.922 270.5 358.171C270.636 358.42 270.814 358.61 271.034 358.74C271.253 358.865 271.487 358.927 271.736 358.927C272.045 358.927 272.315 358.853 272.546 358.704C272.777 358.55 272.923 358.334 272.982 358.055H273.747C273.658 358.5 273.433 358.862 273.071 359.14C272.709 359.419 272.267 359.558 271.745 359.558ZM279.511 359.558C278.93 359.558 278.42 359.425 277.981 359.158C277.542 358.885 277.201 358.509 276.958 358.028C276.715 357.542 276.593 356.982 276.593 356.347C276.593 355.713 276.715 355.152 276.958 354.666C277.207 354.18 277.557 353.8 278.008 353.527C278.464 353.254 279.001 353.118 279.618 353.118C280.317 353.118 280.899 353.287 281.361 353.625C281.83 353.963 282.132 354.429 282.269 355.022H281.406C281.323 354.648 281.124 354.351 280.81 354.132C280.501 353.913 280.104 353.803 279.618 353.803C279.161 353.803 278.764 353.907 278.426 354.114C278.088 354.316 277.824 354.606 277.634 354.986C277.45 355.366 277.358 355.819 277.358 356.347C277.358 356.875 277.45 357.329 277.634 357.708C277.818 358.088 278.073 358.381 278.399 358.589C278.725 358.79 279.105 358.891 279.538 358.891C280.202 358.891 280.703 358.698 281.041 358.313C281.379 357.922 281.572 357.388 281.619 356.712H279.822V356.125H282.384V359.452H281.699L281.637 358.429C281.412 358.79 281.136 359.069 280.81 359.265C280.483 359.461 280.051 359.558 279.511 359.558ZM283.343 359.452V355.039H284.02L284.082 355.885C284.218 355.594 284.426 355.363 284.704 355.191C284.983 355.019 285.327 354.933 285.736 354.933V355.715H285.532C285.271 355.715 285.031 355.763 284.811 355.858C284.592 355.947 284.417 356.101 284.286 356.32C284.156 356.54 284.091 356.842 284.091 357.228V359.452H283.343ZM288.243 359.558C287.827 359.558 287.454 359.464 287.122 359.274C286.79 359.084 286.526 358.817 286.33 358.473C286.14 358.123 286.045 357.714 286.045 357.246C286.045 356.777 286.143 356.371 286.339 356.027C286.535 355.677 286.798 355.407 287.131 355.217C287.469 355.028 287.845 354.933 288.26 354.933C288.675 354.933 289.049 355.028 289.381 355.217C289.713 355.407 289.974 355.677 290.164 356.027C290.36 356.371 290.458 356.777 290.458 357.246C290.458 357.714 290.36 358.123 290.164 358.473C289.968 358.817 289.701 359.084 289.363 359.274C289.031 359.464 288.658 359.558 288.243 359.558ZM288.243 358.918C288.498 358.918 288.735 358.856 288.954 358.731C289.174 358.607 289.352 358.42 289.488 358.171C289.624 357.922 289.693 357.613 289.693 357.246C289.693 356.878 289.624 356.569 289.488 356.32C289.357 356.071 289.183 355.885 288.963 355.76C288.744 355.635 288.509 355.573 288.26 355.573C288.005 355.573 287.768 355.635 287.549 355.76C287.329 355.885 287.151 356.071 287.015 356.32C286.879 356.569 286.81 356.878 286.81 357.246C286.81 357.613 286.879 357.922 287.015 358.171C287.151 358.42 287.326 358.607 287.54 358.731C287.759 358.856 287.993 358.918 288.243 358.918ZM292.043 359.452L290.753 355.039H291.5L292.435 358.5L293.466 355.039H294.312L295.352 358.5L296.277 355.039H297.034L295.744 359.452H294.979L293.893 355.813L292.808 359.452H292.043ZM299.426 359.452C299.022 359.452 298.705 359.354 298.474 359.158C298.243 358.962 298.127 358.61 298.127 358.1V355.671H297.362V355.039H298.127L298.225 353.981H298.874V355.039H300.173V355.671H298.874V358.1C298.874 358.378 298.93 358.568 299.043 358.669C299.156 358.764 299.355 358.811 299.639 358.811H300.102V359.452H299.426ZM300.944 359.452V353.047H301.692V355.796C301.84 355.523 302.05 355.312 302.323 355.164C302.596 355.01 302.892 354.933 303.213 354.933C303.723 354.933 304.132 355.093 304.44 355.413C304.749 355.727 304.903 356.214 304.903 356.872V359.452H304.165V356.952C304.165 356.033 303.794 355.573 303.053 355.573C302.667 355.573 302.344 355.713 302.083 355.991C301.822 356.264 301.692 356.655 301.692 357.165V359.452H300.944Z" fill="#03133D"/>
<path d="M259.1 387.883C257.733 387.883 256.574 387.632 255.623 387.13C254.671 386.611 253.91 385.928 253.34 385.081C252.786 384.233 252.38 383.29 252.12 382.252C251.878 381.215 251.757 380.159 251.757 379.087C251.757 377.046 252.042 375.282 252.613 373.794C253.184 372.307 254.006 371.156 255.078 370.343C256.168 369.513 257.474 369.098 258.996 369.098C260.258 369.098 261.331 369.349 262.213 369.85C263.095 370.335 263.778 370.983 264.263 371.796C264.747 372.592 265.032 373.457 265.119 374.391H261.85C261.711 373.613 261.391 373.016 260.89 372.601C260.388 372.186 259.74 371.978 258.944 371.978C258.217 371.978 257.577 372.203 257.024 372.653C256.47 373.102 256.029 373.777 255.701 374.676C255.389 375.576 255.216 376.709 255.182 378.075C255.182 378.092 255.182 378.118 255.182 378.153C255.182 378.17 255.182 378.188 255.182 378.205C255.458 377.738 255.822 377.331 256.271 376.985C256.738 376.622 257.266 376.337 257.854 376.129C258.442 375.922 259.065 375.818 259.722 375.818C260.725 375.818 261.66 376.06 262.524 376.544C263.407 377.029 264.116 377.712 264.652 378.594C265.205 379.476 265.482 380.523 265.482 381.734C265.482 382.823 265.214 383.844 264.678 384.795C264.142 385.729 263.398 386.482 262.447 387.052C261.495 387.606 260.38 387.883 259.1 387.883ZM258.918 384.873C259.523 384.873 260.068 384.743 260.552 384.484C261.054 384.224 261.443 383.87 261.72 383.42C261.997 382.953 262.135 382.425 262.135 381.837C262.135 381.215 261.997 380.678 261.72 380.229C261.443 379.779 261.054 379.424 260.552 379.165C260.068 378.905 259.506 378.776 258.866 378.776C258.261 378.776 257.707 378.914 257.206 379.191C256.721 379.45 256.332 379.814 256.038 380.281C255.761 380.73 255.623 381.241 255.623 381.811C255.623 382.399 255.761 382.927 256.038 383.394C256.332 383.844 256.721 384.207 257.206 384.484C257.707 384.743 258.278 384.873 258.918 384.873ZM274.457 387.883C273.212 387.883 272.079 387.658 271.058 387.208C270.055 386.758 269.251 386.127 268.645 385.314C268.057 384.501 267.763 383.558 267.763 382.486C267.763 381.742 267.884 381.068 268.126 380.462C268.386 379.857 268.749 379.321 269.216 378.854C269.683 378.387 270.228 378.032 270.85 377.79C270.055 377.427 269.415 376.908 268.931 376.233C268.446 375.558 268.204 374.797 268.204 373.95C268.204 373.102 268.438 372.307 268.905 371.563C269.389 370.819 270.089 370.222 271.006 369.773C271.94 369.323 273.09 369.098 274.457 369.098C275.841 369.098 276.991 369.323 277.908 369.773C278.842 370.222 279.542 370.819 280.009 371.563C280.476 372.307 280.71 373.102 280.71 373.95C280.71 374.78 280.468 375.541 279.983 376.233C279.499 376.908 278.859 377.427 278.063 377.79C278.703 378.049 279.248 378.412 279.698 378.879C280.165 379.329 280.528 379.857 280.788 380.462C281.047 381.068 281.177 381.742 281.177 382.486C281.177 383.558 280.874 384.501 280.269 385.314C279.681 386.127 278.876 386.758 277.856 387.208C276.853 387.658 275.72 387.883 274.457 387.883ZM274.457 384.951C275.547 384.951 276.36 384.691 276.896 384.172C277.449 383.653 277.726 382.996 277.726 382.201C277.726 381.318 277.432 380.627 276.844 380.125C276.273 379.606 275.477 379.347 274.457 379.347C273.436 379.347 272.632 379.606 272.044 380.125C271.456 380.627 271.162 381.318 271.162 382.201C271.162 382.996 271.439 383.653 271.992 384.172C272.563 384.691 273.385 384.951 274.457 384.951ZM274.457 376.778C275.339 376.778 276.022 376.553 276.507 376.103C277.008 375.654 277.259 375.074 277.259 374.365C277.259 373.604 277.017 373.016 276.533 372.601C276.048 372.168 275.356 371.952 274.457 371.952C273.575 371.952 272.892 372.168 272.407 372.601C271.923 373.016 271.681 373.613 271.681 374.391C271.681 375.083 271.923 375.654 272.407 376.103C272.892 376.553 273.575 376.778 274.457 376.778ZM286.754 387.571L296.951 369.409H300.349L290.153 387.571H286.754ZM299.571 387.883C298.741 387.883 297.98 387.701 297.288 387.338C296.613 386.957 296.068 386.421 295.653 385.729C295.255 385.02 295.057 384.19 295.057 383.238C295.057 382.27 295.255 381.439 295.653 380.748C296.068 380.056 296.613 379.528 297.288 379.165C297.98 378.784 298.741 378.594 299.571 378.594C300.436 378.594 301.197 378.784 301.854 379.165C302.529 379.528 303.065 380.056 303.463 380.748C303.861 381.439 304.06 382.27 304.06 383.238C304.06 384.19 303.861 385.02 303.463 385.729C303.065 386.421 302.529 386.957 301.854 387.338C301.18 387.701 300.419 387.883 299.571 387.883ZM299.545 385.47C299.891 385.47 300.194 385.383 300.453 385.21C300.73 385.037 300.946 384.786 301.102 384.458C301.258 384.129 301.335 383.723 301.335 383.238C301.335 382.737 301.258 382.322 301.102 381.993C300.946 381.647 300.739 381.388 300.479 381.215C300.22 381.042 299.917 380.955 299.571 380.955C299.242 380.955 298.94 381.042 298.663 381.215C298.404 381.388 298.196 381.647 298.04 381.993C297.885 382.322 297.807 382.737 297.807 383.238C297.807 383.723 297.885 384.129 298.04 384.458C298.196 384.786 298.404 385.037 298.663 385.21C298.922 385.383 299.217 385.47 299.545 385.47ZM287.636 378.412C286.806 378.412 286.045 378.222 285.353 377.842C284.678 377.461 284.133 376.925 283.718 376.233C283.32 375.541 283.122 374.72 283.122 373.768C283.122 372.782 283.32 371.952 283.718 371.277C284.133 370.586 284.678 370.049 285.353 369.669C286.045 369.288 286.814 369.098 287.662 369.098C288.51 369.098 289.262 369.288 289.919 369.669C290.594 370.049 291.13 370.586 291.528 371.277C291.943 371.952 292.151 372.782 292.151 373.768C292.151 374.72 291.943 375.541 291.528 376.233C291.13 376.925 290.594 377.461 289.919 377.842C289.245 378.222 288.484 378.412 287.636 378.412ZM287.636 376C287.965 376 288.259 375.913 288.518 375.74C288.795 375.567 289.011 375.316 289.167 374.988C289.323 374.659 289.4 374.253 289.4 373.768C289.4 373.249 289.323 372.826 289.167 372.497C289.011 372.168 288.795 371.917 288.518 371.744C288.259 371.571 287.965 371.485 287.636 371.485C287.307 371.485 287.005 371.571 286.728 371.744C286.469 371.917 286.261 372.177 286.105 372.523C285.95 372.851 285.872 373.267 285.872 373.768C285.872 374.253 285.95 374.659 286.105 374.988C286.261 375.316 286.469 375.567 286.728 375.74C287.005 375.913 287.307 376 287.636 376Z" fill="#03133D"/>
<g filter="url(#filter1_d_1_1448)">
<rect x="130.845" y="487" width="140" height="62.0189" rx="8" fill="white"/>
</g>
<rect x="141.845" y="498.491" width="55.782" height="6" rx="3" fill="#C4D2F6"/>
<rect x="140.845" y="517.07" width="117" height="6" rx="3" fill="#EDF1FC"/>
<rect x="141.845" y="533.77" width="117" height="6" rx="3" fill="#EDF1FC"/>
<g filter="url(#filter2_d_1_1448)">
<rect x="284.845" y="487" width="140" height="62.0189" rx="8" fill="white"/>
</g>
<rect x="295.845" y="498.491" width="55.782" height="6" rx="3" fill="#C4D2F6"/>
<rect x="294.845" y="517.07" width="117" height="6" rx="3" fill="#EDF1FC"/>
<rect x="295.845" y="533.77" width="117" height="6" rx="3" fill="#EDF1FC"/>
<g filter="url(#filter3_d_1_1448)">
<rect x="374.412" y="111" width="199.645" height="228" rx="10" fill="white"/>
</g>
<g filter="url(#filter4_d_1_1448)">
<rect x="397.849" y="297" width="157.719" height="23.2761" rx="11.6381" fill="white"/>
</g>
<rect x="410.746" y="305.729" width="127.773" height="5.81906" rx="2.90953" fill="#EDF1FC"/>
<g filter="url(#filter5_d_1_1448)">
<rect x="436.849" y="250" width="169.698" height="26.1857" rx="13.0928" fill="white"/>
</g>
<rect x="451.822" y="260.668" width="139.751" height="5.81903" rx="2.90952" fill="#0097FE"/>
<path d="M395.426 143.138C394.834 143.138 394.318 143.031 393.88 142.815C393.442 142.6 393.103 142.3 392.865 141.916C392.627 141.531 392.507 141.085 392.507 140.578H393.522C393.522 140.893 393.596 141.185 393.742 141.454C393.888 141.716 394.099 141.927 394.376 142.089C394.661 142.243 395.01 142.319 395.426 142.319C395.972 142.319 396.395 142.189 396.695 141.927C396.995 141.666 397.144 141.339 397.144 140.947C397.144 140.624 397.075 140.366 396.937 140.174C396.798 139.974 396.61 139.812 396.372 139.689C396.141 139.566 395.872 139.459 395.564 139.366C395.264 139.274 394.949 139.17 394.618 139.055C393.995 138.84 393.534 138.574 393.234 138.259C392.934 137.936 392.784 137.517 392.784 137.002C392.777 136.571 392.877 136.191 393.084 135.86C393.292 135.521 393.584 135.26 393.961 135.075C394.345 134.883 394.799 134.787 395.322 134.787C395.837 134.787 396.283 134.883 396.66 135.075C397.045 135.268 397.341 135.533 397.548 135.871C397.764 136.21 397.875 136.594 397.883 137.025H396.868C396.868 136.802 396.81 136.583 396.695 136.367C396.579 136.144 396.402 135.964 396.164 135.825C395.933 135.687 395.641 135.618 395.287 135.618C394.849 135.61 394.488 135.721 394.203 135.952C393.926 136.183 393.788 136.502 393.788 136.91C393.788 137.256 393.884 137.521 394.076 137.705C394.276 137.89 394.553 138.044 394.907 138.167C395.26 138.282 395.668 138.417 396.129 138.571C396.514 138.709 396.86 138.87 397.168 139.055C397.475 139.24 397.714 139.478 397.883 139.77C398.06 140.062 398.148 140.435 398.148 140.889C398.148 141.274 398.048 141.639 397.848 141.985C397.648 142.323 397.344 142.6 396.937 142.815C396.537 143.031 396.033 143.138 395.426 143.138ZM401.137 143.138C400.66 143.138 400.264 143.058 399.949 142.896C399.634 142.735 399.399 142.519 399.245 142.25C399.091 141.981 399.015 141.689 399.015 141.374C399.015 140.789 399.238 140.339 399.684 140.024C400.13 139.709 400.737 139.551 401.506 139.551H403.052V139.482C403.052 138.982 402.921 138.605 402.66 138.351C402.398 138.09 402.048 137.959 401.61 137.959C401.233 137.959 400.906 138.055 400.629 138.248C400.36 138.432 400.191 138.705 400.122 139.067H399.13C399.168 138.651 399.307 138.301 399.545 138.017C399.791 137.732 400.095 137.517 400.456 137.371C400.818 137.217 401.202 137.14 401.61 137.14C402.41 137.14 403.01 137.356 403.409 137.786C403.817 138.209 404.021 138.774 404.021 139.482V143H403.156L403.098 141.973C402.936 142.296 402.698 142.573 402.383 142.804C402.075 143.027 401.66 143.138 401.137 143.138ZM401.287 142.319C401.656 142.319 401.971 142.223 402.233 142.031C402.502 141.839 402.706 141.589 402.844 141.281C402.983 140.974 403.052 140.651 403.052 140.312V140.301H401.587C401.018 140.301 400.614 140.401 400.376 140.601C400.145 140.793 400.03 141.035 400.03 141.327C400.03 141.627 400.137 141.87 400.353 142.054C400.576 142.231 400.887 142.319 401.287 142.319ZM405.244 143V134.695H406.213V143H405.244ZM410.142 143.138C409.596 143.138 409.112 143.015 408.689 142.769C408.266 142.516 407.931 142.166 407.685 141.72C407.447 141.274 407.328 140.747 407.328 140.139C407.328 139.539 407.447 139.017 407.685 138.571C407.924 138.117 408.254 137.767 408.677 137.521C409.108 137.267 409.604 137.14 410.165 137.14C410.719 137.14 411.196 137.267 411.596 137.521C412.003 137.767 412.315 138.094 412.53 138.501C412.745 138.909 412.853 139.347 412.853 139.816C412.853 139.901 412.849 139.986 412.842 140.07C412.842 140.155 412.842 140.251 412.842 140.358H408.285C408.308 140.797 408.408 141.162 408.585 141.454C408.77 141.739 408.997 141.954 409.266 142.1C409.543 142.246 409.835 142.319 410.142 142.319C410.542 142.319 410.877 142.227 411.146 142.043C411.415 141.858 411.611 141.608 411.734 141.293H412.692C412.538 141.823 412.242 142.266 411.803 142.619C411.373 142.965 410.819 143.138 410.142 143.138ZM410.142 137.959C409.681 137.959 409.27 138.101 408.908 138.386C408.554 138.663 408.351 139.07 408.297 139.609H411.896C411.873 139.093 411.696 138.69 411.365 138.398C411.034 138.105 410.627 137.959 410.142 137.959ZM416.098 143.138C415.414 143.138 414.845 142.965 414.391 142.619C413.937 142.273 413.672 141.804 413.595 141.212H414.587C414.649 141.512 414.806 141.773 415.06 141.996C415.322 142.212 415.671 142.319 416.11 142.319C416.517 142.319 416.817 142.235 417.01 142.066C417.202 141.889 417.298 141.681 417.298 141.443C417.298 141.097 417.171 140.866 416.917 140.751C416.671 140.635 416.321 140.532 415.868 140.439C415.56 140.378 415.252 140.289 414.945 140.174C414.637 140.059 414.38 139.897 414.172 139.689C413.964 139.474 413.861 139.193 413.861 138.847C413.861 138.348 414.045 137.94 414.414 137.625C414.791 137.302 415.299 137.14 415.937 137.14C416.544 137.14 417.04 137.294 417.425 137.602C417.817 137.902 418.044 138.332 418.105 138.894H417.148C417.11 138.601 416.983 138.374 416.767 138.213C416.56 138.044 416.279 137.959 415.925 137.959C415.579 137.959 415.31 138.032 415.118 138.178C414.933 138.324 414.841 138.517 414.841 138.755C414.841 138.986 414.96 139.167 415.199 139.297C415.445 139.428 415.775 139.539 416.191 139.632C416.544 139.709 416.879 139.805 417.194 139.92C417.517 140.028 417.779 140.193 417.979 140.416C418.186 140.631 418.29 140.947 418.29 141.362C418.298 141.877 418.102 142.304 417.702 142.642C417.309 142.973 416.775 143.138 416.098 143.138ZM424.526 143C424.003 143 423.592 142.873 423.292 142.619C422.992 142.366 422.842 141.908 422.842 141.247V138.098H421.85V137.279H422.842L422.969 135.906H423.811V137.279H425.495V138.098H423.811V141.247C423.811 141.608 423.884 141.854 424.03 141.985C424.176 142.108 424.434 142.169 424.803 142.169H425.403V143H424.526ZM426.496 143V137.279H427.372L427.453 138.374C427.63 137.998 427.899 137.698 428.26 137.475C428.622 137.252 429.068 137.14 429.598 137.14V138.155H429.333C428.995 138.155 428.683 138.217 428.399 138.34C428.114 138.455 427.887 138.655 427.718 138.94C427.549 139.224 427.465 139.616 427.465 140.116V143H426.496ZM432.814 143.138C432.268 143.138 431.783 143.015 431.36 142.769C430.937 142.516 430.603 142.166 430.357 141.72C430.118 141.274 429.999 140.747 429.999 140.139C429.999 139.539 430.118 139.017 430.357 138.571C430.595 138.117 430.926 137.767 431.349 137.521C431.779 137.267 432.275 137.14 432.837 137.14C433.39 137.14 433.867 137.267 434.267 137.521C434.675 137.767 434.986 138.094 435.201 138.501C435.417 138.909 435.524 139.347 435.524 139.816C435.524 139.901 435.52 139.986 435.513 140.07C435.513 140.155 435.513 140.251 435.513 140.358H430.956C430.98 140.797 431.08 141.162 431.256 141.454C431.441 141.739 431.668 141.954 431.937 142.1C432.214 142.246 432.506 142.319 432.814 142.319C433.213 142.319 433.548 142.227 433.817 142.043C434.086 141.858 434.282 141.608 434.405 141.293H435.363C435.209 141.823 434.913 142.266 434.475 142.619C434.044 142.965 433.49 143.138 432.814 143.138ZM432.814 137.959C432.352 137.959 431.941 138.101 431.579 138.386C431.226 138.663 431.022 139.07 430.968 139.609H434.567C434.544 139.093 434.367 138.69 434.036 138.398C433.706 138.105 433.298 137.959 432.814 137.959ZM436.578 143V137.279H437.455L437.512 138.305C437.697 137.944 437.962 137.659 438.308 137.452C438.654 137.244 439.046 137.14 439.485 137.14C440.161 137.14 440.7 137.348 441.1 137.763C441.507 138.171 441.711 138.801 441.711 139.655V143H440.742V139.759C440.742 138.567 440.25 137.971 439.266 137.971C438.773 137.971 438.362 138.151 438.031 138.513C437.708 138.867 437.547 139.374 437.547 140.036V143H436.578ZM445.544 143.138C444.975 143.138 444.475 143.008 444.044 142.746C443.621 142.485 443.29 142.127 443.052 141.673C442.821 141.22 442.706 140.705 442.706 140.128C442.706 139.551 442.825 139.04 443.064 138.594C443.302 138.14 443.633 137.786 444.056 137.532C444.479 137.271 444.978 137.14 445.555 137.14C446.024 137.14 446.44 137.236 446.801 137.429C447.162 137.621 447.443 137.89 447.643 138.236V134.695H448.612V143H447.735L447.643 142.054C447.458 142.331 447.193 142.581 446.847 142.804C446.501 143.027 446.067 143.138 445.544 143.138ZM445.647 142.296C446.032 142.296 446.37 142.208 446.663 142.031C446.962 141.846 447.193 141.593 447.355 141.27C447.524 140.947 447.608 140.57 447.608 140.139C447.608 139.709 447.524 139.332 447.355 139.009C447.193 138.686 446.962 138.436 446.663 138.259C446.37 138.075 446.032 137.982 445.647 137.982C445.271 137.982 444.932 138.075 444.632 138.259C444.34 138.436 444.109 138.686 443.94 139.009C443.779 139.332 443.698 139.709 443.698 140.139C443.698 140.57 443.779 140.947 443.94 141.27C444.109 141.593 444.34 141.846 444.632 142.031C444.932 142.208 445.271 142.296 445.647 142.296Z" fill="#68718B"/>
<path d="M402.438 180.378C400.777 180.378 399.379 180.074 398.244 179.464C397.109 178.854 396.194 178.034 395.5 177.004C394.806 175.974 394.302 174.828 393.987 173.567C393.692 172.305 393.545 171.013 393.545 169.688C393.545 167.228 393.892 165.094 394.586 163.286C395.28 161.457 396.278 160.049 397.582 159.061C398.885 158.052 400.462 157.547 402.312 157.547C403.825 157.547 405.108 157.852 406.159 158.462C407.231 159.05 408.062 159.828 408.65 160.795C409.239 161.762 409.586 162.803 409.691 163.917H405.938C405.749 162.95 405.339 162.204 404.708 161.678C404.078 161.153 403.268 160.89 402.28 160.89C400.872 160.89 399.736 161.542 398.874 162.845C398.013 164.127 397.55 166.093 397.487 168.742C397.992 167.88 398.748 167.165 399.757 166.598C400.767 166.03 401.891 165.746 403.132 165.746C404.351 165.746 405.497 166.041 406.569 166.629C407.641 167.218 408.503 168.048 409.155 169.12C409.828 170.193 410.164 171.454 410.164 172.905C410.164 174.229 409.838 175.459 409.186 176.594C408.556 177.729 407.652 178.644 406.474 179.338C405.318 180.032 403.973 180.378 402.438 180.378ZM402.217 176.91C403.395 176.91 404.362 176.552 405.118 175.837C405.896 175.102 406.285 174.177 406.285 173.062C406.285 171.885 405.896 170.939 405.118 170.224C404.341 169.509 403.352 169.152 402.154 169.152C401.376 169.152 400.672 169.331 400.041 169.688C399.432 170.024 398.948 170.487 398.591 171.076C398.233 171.643 398.055 172.284 398.055 172.999C398.055 174.134 398.444 175.07 399.221 175.806C400.02 176.542 401.019 176.91 402.217 176.91ZM421.289 180.378C419.776 180.378 418.409 180.116 417.19 179.59C415.97 179.043 414.993 178.276 414.257 177.288C413.542 176.3 413.185 175.154 413.185 173.851C413.185 172.505 413.532 171.328 414.225 170.319C414.94 169.31 415.876 168.584 417.032 168.143C416.023 167.701 415.224 167.071 414.635 166.251C414.047 165.41 413.752 164.474 413.752 163.444C413.752 162.393 414.036 161.426 414.604 160.543C415.171 159.639 416.012 158.914 417.127 158.367C418.262 157.82 419.649 157.547 421.289 157.547C422.929 157.547 424.306 157.82 425.42 158.367C426.535 158.914 427.375 159.639 427.943 160.543C428.511 161.426 428.795 162.393 428.795 163.444C428.795 164.453 428.49 165.389 427.88 166.251C427.291 167.092 426.503 167.722 425.515 168.143C426.692 168.584 427.628 169.31 428.322 170.319C429.015 171.328 429.362 172.505 429.362 173.851C429.362 175.154 429.005 176.3 428.29 177.288C427.575 178.276 426.598 179.043 425.357 179.59C424.138 180.116 422.782 180.378 421.289 180.378ZM421.289 166.945C422.382 166.945 423.244 166.661 423.875 166.093C424.506 165.525 424.821 164.8 424.821 163.917C424.821 162.95 424.506 162.193 423.875 161.647C423.265 161.1 422.403 160.827 421.289 160.827C420.154 160.827 419.282 161.1 418.672 161.647C418.062 162.193 417.757 162.95 417.757 163.917C417.757 164.821 418.062 165.557 418.672 166.125C419.303 166.671 420.175 166.945 421.289 166.945ZM421.289 177.004C422.635 177.004 423.654 176.678 424.348 176.027C425.042 175.354 425.389 174.513 425.389 173.504C425.389 172.39 425.021 171.517 424.285 170.886C423.57 170.256 422.572 169.94 421.289 169.94C420.007 169.94 418.987 170.256 418.23 170.886C417.495 171.517 417.127 172.39 417.127 173.504C417.127 174.513 417.473 175.354 418.167 176.027C418.882 176.678 419.923 177.004 421.289 177.004ZM437.243 168.774C436.234 168.774 435.319 168.553 434.499 168.111C433.68 167.649 433.028 166.997 432.544 166.156C432.061 165.315 431.819 164.317 431.819 163.16C431.819 162.004 432.061 161.005 432.544 160.164C433.028 159.324 433.68 158.682 434.499 158.241C435.319 157.778 436.244 157.547 437.275 157.547C438.284 157.547 439.188 157.778 439.987 158.241C440.806 158.682 441.458 159.324 441.942 160.164C442.425 161.005 442.667 162.004 442.667 163.16C442.667 164.317 442.425 165.315 441.942 166.156C441.458 166.997 440.806 167.649 439.987 168.111C439.167 168.553 438.252 168.774 437.243 168.774ZM436.045 180L448.501 157.925H452.443L439.987 180H436.045ZM437.243 165.967C437.853 165.967 438.378 165.736 438.82 165.273C439.261 164.79 439.482 164.085 439.482 163.16C439.482 162.235 439.261 161.531 438.82 161.047C438.399 160.564 437.874 160.322 437.243 160.322C436.612 160.322 436.076 160.564 435.635 161.047C435.214 161.531 435.004 162.235 435.004 163.16C435.004 164.085 435.214 164.79 435.635 165.273C436.076 165.736 436.612 165.967 437.243 165.967ZM451.371 180.378C450.362 180.378 449.447 180.158 448.627 179.716C447.807 179.254 447.155 178.602 446.672 177.761C446.188 176.92 445.947 175.921 445.947 174.765C445.947 173.609 446.188 172.621 446.672 171.801C447.155 170.96 447.807 170.319 448.627 169.877C449.447 169.415 450.372 169.183 451.402 169.183C452.411 169.183 453.315 169.415 454.114 169.877C454.934 170.319 455.586 170.96 456.069 171.801C456.553 172.621 456.795 173.609 456.795 174.765C456.795 175.921 456.553 176.92 456.069 177.761C455.586 178.602 454.934 179.254 454.114 179.716C453.315 180.158 452.401 180.378 451.371 180.378ZM451.371 177.572C452.001 177.572 452.527 177.341 452.947 176.878C453.389 176.394 453.61 175.69 453.61 174.765C453.61 173.84 453.389 173.136 452.947 172.652C452.527 172.169 452.001 171.927 451.371 171.927C450.74 171.927 450.204 172.169 449.762 172.652C449.342 173.136 449.132 173.84 449.132 174.765C449.132 175.69 449.342 176.394 449.762 176.878C450.204 177.341 450.74 177.572 451.371 177.572Z" fill="#03133D"/>
<path d="M397.849 240.182C417.06 240.182 414.79 203.967 434.001 203.967C453.212 203.967 450.938 213.624 470.149 213.624C489.36 213.624 486.401 229.49 505.612 229.49C524.823 229.49 528.077 237.64 547.288 237.64" stroke="#FFAE00" stroke-width="2.0694" stroke-linecap="round"/>
<path d="M397.849 240.182C416.619 240.182 419.017 215.004 437.788 215.004C456.558 215.004 453.446 195 472.217 195C490.987 195 490.628 223.282 509.399 223.282C528.169 223.282 529.189 237.536 547.959 237.536" stroke="#0097FE" stroke-width="2.0694" stroke-linecap="round"/>
<path d="M108.885 120H172.739V145.752H274.59V172" stroke="#0097FE" stroke-width="2" stroke-linecap="round" stroke-linejoin="round" stroke-dasharray="4 5"/>
<g filter="url(#filter6_d_1_1448)">
<rect x="44.9982" y="90" width="63.8863" height="64" rx="10" fill="white"/>
</g>
<g clip-path="url(#clip0_1_1448)">
<path d="M88.9201 106H64.9627C62.76 106 60.9698 107.793 60.9698 110V134C60.9698 136.205 62.76 138 64.9627 138H88.9201C91.1215 138 92.913 136.205 92.913 134V110C92.913 107.793 91.1215 106 88.9201 106Z" fill="#3B5999"/>
<path d="M82.9308 122V118C82.9308 116.896 83.8252 117 84.9272 117H86.9237V112H82.9308C79.622 112 76.9414 114.685 76.9414 118V122H72.9485V127H76.9414V138H82.9308V127H85.9255L87.9219 122H82.9308Z" fill="white"/>
</g>
<path d="M362.433 68H312.522V173" stroke="#0097FE" stroke-width="2" stroke-linecap="round" stroke-linejoin="round" stroke-dasharray="4 5"/>
<g filter="url(#filter7_d_1_1448)">
<rect x="362.433" y="36" width="63.8863" height="64" rx="10" fill="white"/>
</g>
<g clip-path="url(#clip1_1_1448)">
<path d="M407.09 62.332C407.09 62.0427 407.079 61.7613 407.066 61.484C408.365 60.56 409.457 59.4067 410.348 58.0787V58.0773C409.159 58.5987 407.895 58.9453 406.575 59.1133C407.932 58.3013 408.969 57.0253 409.456 55.488C408.19 56.244 406.793 56.7773 405.304 57.076C404.102 55.7933 402.389 55 400.52 55C396.894 55 393.976 57.948 393.976 61.5613C393.976 62.0813 394.02 62.5813 394.127 63.0573C388.684 62.7907 383.866 60.1773 380.629 56.1947C380.064 57.1773 379.732 58.3013 379.732 59.5107C379.732 61.7827 380.899 63.796 382.641 64.9627C381.588 64.9427 380.557 64.636 379.682 64.1547V64.2267C379.682 67.4147 381.952 70.0627 384.929 70.6733C383.928 70.948 382.696 70.9373 381.973 70.7773C382.821 73.3747 385.23 75.2853 388.091 75.348C385.863 77.0933 383.034 78.1453 379.971 78.1453C379.435 78.1453 378.92 78.1213 378.405 78.056C381.306 79.9293 384.743 81 388.451 81C400.501 81 407.09 71 407.09 62.332Z" fill="#55ACEE"/>
</g>
<path d="M432.309 438H496.195" stroke="#0097FE" stroke-width="1.5" stroke-linecap="round" stroke-linejoin="round" stroke-dasharray="4 5"/>
<g filter="url(#filter8_d_1_1448)">
<rect x="496.195" y="402" width="63.8863" height="64" rx="10" fill="white"/>
</g>
<g clip-path="url(#clip2_1_1448)">
<path d="M540.111 446V445.999H540.117V437.197C540.117 432.891 539.192 429.574 534.167 429.574C531.751 429.574 530.13 430.902 529.468 432.161H529.398V429.976H524.634V445.999H529.595V438.065C529.595 435.976 529.99 433.956 532.573 433.956C535.117 433.956 535.155 436.34 535.155 438.199V446H540.111Z" fill="#0077B5"/>
<path d="M516.555 429.977H521.522V446H516.555V429.977Z" fill="#0077B5"/>
<path d="M519.037 422C517.449 422 516.16 423.291 516.16 424.882C516.16 426.473 517.449 427.791 519.037 427.791C520.625 427.791 521.914 426.473 521.914 424.882C521.913 423.291 520.624 422 519.037 422V422Z" fill="#0077B5"/>
</g>
<path d="M165.783 553V601H107.886" stroke="#0097FE" stroke-width="2" stroke-linecap="round" stroke-linejoin="round" stroke-dasharray="4 5"/>
<g filter="url(#filter9_d_1_1448)">
<rect x="44" y="569" width="63.8863" height="64" rx="10" fill="white"/>
</g>
<g clip-path="url(#clip3_1_1448)">
<path d="M61.9675 587.177C59.4573 589.789 59.9711 592.564 59.9711 600.993C59.9711 607.993 58.7519 615.011 65.1326 616.663C67.125 617.176 84.779 617.176 86.7687 616.66C89.4254 615.973 91.5868 613.815 91.8823 610.051C91.9236 609.525 91.9236 592.471 91.881 591.935C91.5669 587.925 89.1033 585.615 85.857 585.147C85.113 585.039 84.964 585.007 81.1468 585C67.6068 585.007 64.6388 584.403 61.9675 587.177Z" fill="url(#paint0_linear_1_1448)"/>
<path d="M75.9408 589.185C71.1081 589.185 66.5189 588.755 64.766 593.261C64.042 595.123 64.1471 597.54 64.1471 601.001C64.1471 604.039 64.05 606.893 64.766 608.74C66.5149 613.249 71.1413 612.817 75.9381 612.817C80.5659 612.817 85.3374 613.3 87.1116 608.74C87.837 606.86 87.7305 604.479 87.7305 601.001C87.7305 596.385 87.9847 593.405 85.75 591.168C83.4874 588.901 80.4275 589.185 75.9355 589.185H75.9408ZM74.884 591.315C84.9647 591.299 86.2478 590.176 85.5397 605.772C85.2882 611.288 81.0956 610.683 75.9421 610.683C66.5455 610.683 66.2753 610.413 66.2753 600.996C66.2753 591.469 67.0207 591.32 74.884 591.312V591.315ZM82.2363 593.276C81.455 593.276 80.8214 593.911 80.8214 594.693C80.8214 595.476 81.455 596.111 82.2363 596.111C83.0175 596.111 83.6511 595.476 83.6511 594.693C83.6511 593.911 83.0175 593.276 82.2363 593.276ZM75.9408 594.933C72.5961 594.933 69.8849 597.651 69.8849 601.001C69.8849 604.352 72.5961 607.068 75.9408 607.068C79.2855 607.068 81.9953 604.352 81.9953 601.001C81.9953 597.651 79.2855 594.933 75.9408 594.933ZM75.9408 597.063C81.1382 597.063 81.1449 604.94 75.9408 604.94C70.7447 604.94 70.7367 597.063 75.9408 597.063Z" fill="white"/>
</g>
<defs>
<filter id="filter0_d_1_1448" x="50" y="118" width="487" height="560" filterUnits="userSpaceOnUse" color-interpolation-filters="sRGB">
<feFlood flood-opacity="0" result="BackgroundImageFix"/>
<feColorMatrix in="SourceAlpha" type="matrix" values="0 0 0 0 0 0 0 0 0 0 0 0 0 0 0 0 0 0 127 0" result="hardAlpha"/>
<feOffset dx="16" dy="32"/>
<feGaussianBlur stdDeviation="37"/>
<feComposite in2="hardAlpha" operator="out"/>
<feColorMatrix type="matrix" values="0 0 0 0 0.495833 0 0 0 0 0.542422 0 0 0 0 0.991667 0 0 0 0.08 0"/>
<feBlend mode="normal" in2="BackgroundImageFix" result="effect1_dropShadow_1_1448"/>
<feBlend mode="normal" in="SourceGraphic" in2="effect1_dropShadow_1_1448" result="shape"/>
</filter>
<filter id="filter1_d_1_1448" x="114.367" y="475.465" width="172.957" height="94.9762" filterUnits="userSpaceOnUse" color-interpolation-filters="sRGB">
<feFlood flood-opacity="0" result="BackgroundImageFix"/>
<feColorMatrix in="SourceAlpha" type="matrix" values="0 0 0 0 0 0 0 0 0 0 0 0 0 0 0 0 0 0 127 0" result="hardAlpha"/>
<feOffset dy="4.94357"/>
<feGaussianBlur stdDeviation="8.23929"/>
<feColorMatrix type="matrix" values="0 0 0 0 0.11 0 0 0 0 0.14137 0 0 0 0 0.4125 0 0 0 0.05 0"/>
<feBlend mode="normal" in2="BackgroundImageFix" result="effect1_dropShadow_1_1448"/>
<feBlend mode="normal" in="SourceGraphic" in2="effect1_dropShadow_1_1448" result="shape"/>
</filter>
<filter id="filter2_d_1_1448" x="268.367" y="475.465" width="172.957" height="94.9762" filterUnits="userSpaceOnUse" color-interpolation-filters="sRGB">
<feFlood flood-opacity="0" result="BackgroundImageFix"/>
<feColorMatrix in="SourceAlpha" type="matrix" values="0 0 0 0 0 0 0 0 0 0 0 0 0 0 0 0 0 0 127 0" result="hardAlpha"/>
<feOffset dy="4.94357"/>
<feGaussianBlur stdDeviation="8.23929"/>
<feColorMatrix type="matrix" values="0 0 0 0 0.11 0 0 0 0 0.14137 0 0 0 0 0.4125 0 0 0 0.05 0"/>
<feBlend mode="normal" in2="BackgroundImageFix" result="effect1_dropShadow_1_1448"/>
<feBlend mode="normal" in="SourceGraphic" in2="effect1_dropShadow_1_1448" result="shape"/>
</filter>
<filter id="filter3_d_1_1448" x="286.412" y="39" width="391.645" height="420" filterUnits="userSpaceOnUse" color-interpolation-filters="sRGB">
<feFlood flood-opacity="0" result="BackgroundImageFix"/>
<feColorMatrix in="SourceAlpha" type="matrix" values="0 0 0 0 0 0 0 0 0 0 0 0 0 0 0 0 0 0 127 0" result="hardAlpha"/>
<feOffset dx="8" dy="24"/>
<feGaussianBlur stdDeviation="48"/>
<feComposite in2="hardAlpha" operator="out"/>
<feColorMatrix type="matrix" values="0 0 0 0 0.494118 0 0 0 0 0.541176 0 0 0 0 0.992157 0 0 0 0.08 0"/>
<feBlend mode="normal" in2="BackgroundImageFix" result="effect1_dropShadow_1_1448"/>
<feBlend mode="normal" in="SourceGraphic" in2="effect1_dropShadow_1_1448" result="shape"/>
</filter>
<filter id="filter4_d_1_1448" x="381.371" y="285.465" width="190.677" height="56.2335" filterUnits="userSpaceOnUse" color-interpolation-filters="sRGB">
<feFlood flood-opacity="0" result="BackgroundImageFix"/>
<feColorMatrix in="SourceAlpha" type="matrix" values="0 0 0 0 0 0 0 0 0 0 0 0 0 0 0 0 0 0 127 0" result="hardAlpha"/>
<feOffset dy="4.94357"/>
<feGaussianBlur stdDeviation="8.23929"/>
<feColorMatrix type="matrix" values="0 0 0 0 0.11 0 0 0 0 0.14137 0 0 0 0 0.4125 0 0 0 0.05 0"/>
<feBlend mode="normal" in2="BackgroundImageFix" result="effect1_dropShadow_1_1448"/>
<feBlend mode="normal" in="SourceGraphic" in2="effect1_dropShadow_1_1448" result="shape"/>
</filter>
<filter id="filter5_d_1_1448" x="416.849" y="234" width="209.698" height="66.1855" filterUnits="userSpaceOnUse" color-interpolation-filters="sRGB">
<feFlood flood-opacity="0" result="BackgroundImageFix"/>
<feColorMatrix in="SourceAlpha" type="matrix" values="0 0 0 0 0 0 0 0 0 0 0 0 0 0 0 0 0 0 127 0" result="hardAlpha"/>
<feOffset dy="4"/>
<feGaussianBlur stdDeviation="10"/>
<feColorMatrix type="matrix" values="0 0 0 0 0.14902 0 0 0 0 0.14902 0 0 0 0 0.14902 0 0 0 0.04 0"/>
<feBlend mode="normal" in2="BackgroundImageFix" result="effect1_dropShadow_1_1448"/>
<feBlend mode="normal" in="SourceGraphic" in2="effect1_dropShadow_1_1448" result="shape"/>
</filter>
<filter id="filter6_d_1_1448" x="0.99823" y="54" width="167.886" height="168" filterUnits="userSpaceOnUse" color-interpolation-filters="sRGB">
<feFlood flood-opacity="0" result="BackgroundImageFix"/>
<feColorMatrix in="SourceAlpha" type="matrix" values="0 0 0 0 0 0 0 0 0 0 0 0 0 0 0 0 0 0 127 0" result="hardAlpha"/>
<feOffset dx="8" dy="16"/>
<feGaussianBlur stdDeviation="26"/>
<feColorMatrix type="matrix" values="0 0 0 0 0.494118 0 0 0 0 0.541176 0 0 0 0 0.992157 0 0 0 0.08 0"/>
<feBlend mode="normal" in2="BackgroundImageFix" result="effect1_dropShadow_1_1448"/>
<feBlend mode="normal" in="SourceGraphic" in2="effect1_dropShadow_1_1448" result="shape"/>
</filter>
<filter id="filter7_d_1_1448" x="318.433" y="0" width="167.886" height="168" filterUnits="userSpaceOnUse" color-interpolation-filters="sRGB">
<feFlood flood-opacity="0" result="BackgroundImageFix"/>
<feColorMatrix in="SourceAlpha" type="matrix" values="0 0 0 0 0 0 0 0 0 0 0 0 0 0 0 0 0 0 127 0" result="hardAlpha"/>
<feOffset dx="8" dy="16"/>
<feGaussianBlur stdDeviation="26"/>
<feColorMatrix type="matrix" values="0 0 0 0 0.494118 0 0 0 0 0.541176 0 0 0 0 0.992157 0 0 0 0.08 0"/>
<feBlend mode="normal" in2="BackgroundImageFix" result="effect1_dropShadow_1_1448"/>
<feBlend mode="normal" in="SourceGraphic" in2="effect1_dropShadow_1_1448" result="shape"/>
</filter>
<filter id="filter8_d_1_1448" x="452.195" y="366" width="167.886" height="168" filterUnits="userSpaceOnUse" color-interpolation-filters="sRGB">
<feFlood flood-opacity="0" result="BackgroundImageFix"/>
<feColorMatrix in="SourceAlpha" type="matrix" values="0 0 0 0 0 0 0 0 0 0 0 0 0 0 0 0 0 0 127 0" result="hardAlpha"/>
<feOffset dx="8" dy="16"/>
<feGaussianBlur stdDeviation="26"/>
<feColorMatrix type="matrix" values="0 0 0 0 0.494118 0 0 0 0 0.541176 0 0 0 0 0.992157 0 0 0 0.08 0"/>
<feBlend mode="normal" in2="BackgroundImageFix" result="effect1_dropShadow_1_1448"/>
<feBlend mode="normal" in="SourceGraphic" in2="effect1_dropShadow_1_1448" result="shape"/>
</filter>
<filter id="filter9_d_1_1448" x="0" y="533" width="167.886" height="168" filterUnits="userSpaceOnUse" color-interpolation-filters="sRGB">
<feFlood flood-opacity="0" result="BackgroundImageFix"/>
<feColorMatrix in="SourceAlpha" type="matrix" values="0 0 0 0 0 0 0 0 0 0 0 0 0 0 0 0 0 0 127 0" result="hardAlpha"/>
<feOffset dx="8" dy="16"/>
<feGaussianBlur stdDeviation="26"/>
<feColorMatrix type="matrix" values="0 0 0 0 0.494118 0 0 0 0 0.541176 0 0 0 0 0.992157 0 0 0 0.08 0"/>
<feBlend mode="normal" in2="BackgroundImageFix" result="effect1_dropShadow_1_1448"/>
<feBlend mode="normal" in="SourceGraphic" in2="effect1_dropShadow_1_1448" result="shape"/>
</filter>
<linearGradient id="paint0_linear_1_1448" x1="62.0288" y1="614.956" x2="91.7618" y2="589.268" gradientUnits="userSpaceOnUse">
<stop stop-color="#FFDD55"/>
<stop offset="0.5" stop-color="#FF543E"/>
<stop offset="1" stop-color="#C837AB"/>
</linearGradient>
<clipPath id="clip0_1_1448">
<rect width="31.9432" height="32" fill="white" transform="translate(60.9698 106)"/>
</clipPath>
<clipPath id="clip1_1_1448">
<rect width="31.9432" height="32" fill="white" transform="translate(378.405 52)"/>
</clipPath>
<clipPath id="clip2_1_1448">
<rect width="23.9574" height="24" fill="white" transform="translate(516.16 422)"/>
</clipPath>
<clipPath id="clip3_1_1448">
<rect width="31.9432" height="32" fill="white" transform="translate(59.9718 585)"/>
</clipPath>
</defs>
</svg>
